<?xml version="1.0" standalone="no"?>
<!DOCTYPE svg PUBLIC "-//W3C//DTD SVG 20010904//EN"
 "http://www.w3.org/TR/2001/REC-SVG-20010904/DTD/svg10.dtd">
<svg version="1.0" xmlns="http://www.w3.org/2000/svg"
 width="512.000000pt" height="512.000000pt" viewBox="0 0 512.000000 512.000000"
 preserveAspectRatio="xMidYMid meet">

<g transform="translate(0.000000,512.000000) scale(0.100000,-0.100000)"
fill="#000000" stroke="none">
<path d="M0 2560 l0 -2560 2560 0 2560 0 0 2560 0 2560 -2560 0 -2560 0 0
-2560z m3224 1730 c27 -14 66 -45 87 -69 61 -69 69 -111 69 -361 0 -267 -7
-298 -84 -376 -87 -86 -67 -84 -741 -84 -674 0 -654 -2 -741 84 -60 61 -84
123 -84 218 l0 58 -227 0 c-219 0 -230 -1 -278 -24 -60 -28 -87 -56 -114 -116
-20 -44 -21 -59 -21 -1245 l0 -1200 24 -51 c28 -60 82 -108 140 -123 30 -9
367 -11 1241 -9 l1200 3 47 28 c31 18 57 44 75 75 l28 47 5 632 5 633 31 30
c52 52 128 40 159 -25 13 -29 15 -111 15 -622 0 -634 -3 -670 -53 -769 -35
-68 -95 -133 -158 -171 -110 -66 -48 -63 -1380 -63 -1154 0 -1210 1 -1268 19
-151 47 -258 157 -297 306 -11 40 -14 283 -14 1262 0 1158 1 1214 19 1272 25
82 60 138 119 193 109 102 172 118 468 118 l231 0 5 79 c8 140 78 231 208 272
14 4 297 7 630 6 l605 -2 49 -25z m930 -504 c43 -18 66 -51 66 -95 0 -32 -55
-89 -837 -875 -461 -463 -844 -846 -853 -852 -27 -20 -63 -23 -94 -10 -17 8
-149 133 -293 278 -256 257 -263 265 -263 303 1 61 46 105 106 105 23 0 69
-41 256 -227 l228 -228 798 797 c670 670 815 810 850 817 1 1 18 -5 36 -13z"/>
<path d="M1955 4095 c-25 -24 -25 -24 -25 -235 0 -211 0 -211 25 -235 l24 -25
576 0 576 0 24 25 c25 24 25 24 25 235 0 211 0 211 -25 235 l-24 25 -576 0
-576 0 -24 -25z"/>
</g>
</svg>
